<?xml version="1.0" standalone="no"?><!DOCTYPE svg PUBLIC "-//W3C//DTD SVG 1.1//EN" "http://www.w3.org/Graphics/SVG/1.1/DTD/svg11.dtd"><svg xmlns:xlink="http://www.w3.org/1999/xlink" version="1.1" style="font-family:'lucida grande', 'lucida sans unicode', arial, helvetica, sans-serif;font-size:12px;" xmlns="http://www.w3.org/2000/svg" width="600" height="400"><desc>Created with Highcharts 4.2.3</desc><defs><clipPath id="highcharts-22"><rect x="0" y="0" width="526" height="239"></rect></clipPath></defs><rect x="0" y="0" width="600" height="400" fill="#FFFFFF" class=" highcharts-background"></rect><path fill="none" d="M 74 181.5 L 600 181.5" stroke="#000000" stroke-width="3" stroke-dasharray="12,9" ></path><text x="590" text-anchor="end"  transform="translate(0,0)" style="" y="178" visibility="visible"><tspan>0.5 @ 16.0Å</tspan></text><path fill="none" d="M 74 266.5 L 600 266.5" stroke="#000000" stroke-width="1" stroke-dasharray="4,3,1,3" ></path><text x="590" text-anchor="end"  transform="translate(0,0)" style="" y="263" visibility="visible"><tspan>0.143 @ 14.2Å</tspan></text><path fill="none" d="M 74 220 L 600 220" stroke="#000000" stroke-width="2" stroke-dasharray="2,6" ></path><text x="590" text-anchor="end"  transform="translate(0,0)" style="" y="216" visibility="visible"><tspan>0.333 @ 14.7Å</tspan></text><path fill="none" d="M 74 300.5 L 600 300.5" stroke="#808080" stroke-width="3" ></path><g class="highcharts-grid" ></g><g class="highcharts-grid" ><path fill="none" d="M 74 300 L 600 300" stroke="#f8f8f8" stroke-width="2"  opacity="1"></path><path fill="none" d="M 74 240 L 600 240" stroke="#f8f8f8" stroke-width="2"  opacity="1"></path><path fill="none" d="M 74 181 L 600 181" stroke="#f8f8f8" stroke-width="2"  opacity="1"></path><path fill="none" d="M 74 121 L 600 121" stroke="#f8f8f8" stroke-width="2"  opacity="1"></path><path fill="none" d="M 74 61 L 600 61" stroke="#f8f8f8" stroke-width="2"  opacity="1"></path></g><g class="highcharts-axis" ><path fill="none" d="M 73.5 300 L 73.5 310" stroke="#C0D0E0" stroke-width="1" opacity="1"></path><path fill="none" d="M 158.5 300 L 158.5 310" stroke="#C0D0E0" stroke-width="1" opacity="1"></path><path fill="none" d="M 243.5 300 L 243.5 310" stroke="#C0D0E0" stroke-width="1" opacity="1"></path><path fill="none" d="M 328.5 300 L 328.5 310" stroke="#C0D0E0" stroke-width="1" opacity="1"></path><path fill="none" d="M 413.5 300 L 413.5 310" stroke="#C0D0E0" stroke-width="1" opacity="1"></path><path fill="none" d="M 497.5 300 L 497.5 310" stroke="#C0D0E0" stroke-width="1" opacity="1"></path><path fill="none" d="M 582.5 300 L 582.5 310" stroke="#C0D0E0" stroke-width="1" opacity="1"></path><text x="337"  text-anchor="middle" transform="translate(0,0)" class=" highcharts-xaxis-title" style="color:#010101;fill:#010101;" y="351.96875"><tspan>Spatial frequency [Å-1]</tspan></text><path fill="none" d="M 74 300.5 L 600 300.5" stroke="#C0D0E0" stroke-width="1" ></path></g><g class="highcharts-axis" ><text x="24.640625"  text-anchor="middle" transform="translate(0,0) rotate(270 24.640625 180.5)" class=" highcharts-yaxis-title" style="color:#010101;fill:#010101;" y="180.5">Correlation</text></g><g class="highcharts-series-group" ><g class="highcharts-series highcharts-series-0"  transform="translate(74,61) scale(1 1)" clip-path="url(#highcharts-22)"><path fill="none" d="M 0 0 C 0 0 4.058120093944639 0 6.763533489907733 0.3011500835418701 C 9.468946885870826 0.6023001670837402 10.821653583852372 1.2929823114740209 13.527066979815466 1.7521550059318542 C 16.23248018176839 2.21132766746157 17.585186782744852 1.7521550059318542 20.290599984697778 2.597013473510742 C 22.99601357467104 3.44187194108963 24.34872036965767 11.364811539649963 27.05413395963093 11.364811539649963 C 29.75954754960419 11.364811539649963 31.112254344590827 9.334256529808044 33.817667934564085 9.18833976984024 C 36.52308074849667 9.042423009872437 37.875787155462966 9.042423009872437 40.581199969395556 9.042423009872437 C 43.28661433540949 9.042423009872437 44.63932151841645 11.628655174401986 47.34473588443039 12.698689877986908 C 50.050148698362975 13.7687239676988 51.40285510532927 12.698689877986908 54.10826791926186 14.392594993114471 C 56.81368073319445 16.086500108242035 58.16638714016075 24.45668800992312 60.87179995409334 31.31114685535431 C 63.577214320107274 38.1656096331531 64.92992150311423 40.211906814575194 67.63533586912817 48.66489905118942 C 70.34075023514211 57.11789128780365 71.69345741814907 73.57610803842545 74.39887178416299 73.57610803842545 C 77.10428304601423 73.57610803842545 78.45698867693986 71.57363092899323 81.16239993879111 71.57363092899323 C 83.86781430480505 71.57363092899323 85.22052148781202 71.57363092899323 87.92593585382595 72.35743314027786 C 90.63135021983989 73.1412353515625 91.98405740284684 75.25435635271988 94.68947176886078 81.9379375576973 C 97.39488303071202 88.6215110940071 98.74758866163765 97.5496096177414 101.45299992348889 105.77531999349594 C 104.15841428950282 114.00103980735092 105.51112147250979 115.28243296742438 108.21653583852373 123.06651303172112 C 110.92195020453767 130.85059309601783 112.27465738754464 125.07566074174613 114.98007175355856 144.69572031497955 C 117.68548301540982 164.31575737637252 119.03818864633543 219.3608726710081 121.74359990818668 221.1667546182871 C 124.4490142742006 222.97263656556606 125.80172145720758 222.10733774974943 128.5071358232215 222.97263656556606 C 131.21255018923543 223.83793538138272 132.5652573722424 224.5868692137301 135.27067173825634 225.4932486973703 C 137.97608610427028 226.39962818101048 139.32879328727725 227.50453398376703 142.0342076532912 227.50453398376703 C 144.7396220193051 227.50453398376703 146.09232920231207 225.74675645306706 148.79774356832598 225.74675645306706 C 151.50315172601455 225.74675645306706 152.85585580485883 226.41103260219097 155.5612639625474 226.41103260219097 C 158.26667832856134 226.41103260219097 159.61938551156828 224.4912919908762 162.32479987758222 223.81959802657366 C 165.03021424359616 223.1479040622711 166.38292142660313 223.3870932996273 169.08833579261707 223.05256278067827 C 171.793750158631 222.71803226172923 173.14645734163796 222.1469454318285 175.8518717076519 222.1469454318285 C 178.5572860736658 222.1469454318285 179.9099932566728 224.5261388234794 182.61540762268672 224.5261388234794 C 185.32082198870066 224.5261388234794 186.6735291717076 223.82034475263714 189.37894353772157 223.437385648489 C 192.08435169541013 223.05442742314696 193.4370557742544 222.61134549975395 196.14246393194296 222.61134549975395 C 198.84787829795687 222.61134549975395 200.20058548096387 224.20779351890087 202.90599984697778 224.20779351890087 C 205.61141421299172 224.20779351890087 206.96412139599866 223.02042312920094 209.6695357620126 223.02042312920094 C 212.37495012802657 223.02042312920094 213.7276573110335 223.8563181437552 216.43307167704745 224.14499574899673 C 219.1384860430614 224.43367335423827 220.4911932260684 224.46381115540862 223.1966075920823 224.46381115540862 C 225.90202195809624 224.46381115540862 227.25472914110318 224.05300714820623 229.96014350711712 224.05300714820623 C 232.6655578731311 224.05300714820623 234.01826505613803 224.13192952977147 236.72367942215197 224.18360464274883 C 239.42908757984054 224.23527963714326 240.78179165868477 224.31138241663575 243.48719981637336 224.31138241663575 C 246.1926141823873 224.31138241663575 247.54532136539424 223.25100807845592 250.25073573140818 223.22665537893772 C 252.9561500974221 223.20230267941952 254.3088572804291 223.22665537893772 257.014271646443 223.20230267941952 C 259.7196860124569 223.1779499799013 261.07239319546386 222.12277970463037 263.77780756147786 222.12277970463037 C 266.4832219274918 222.12277970463037 267.83592911049874 222.2177488222718 270.5413434765127 222.25369950383902 C 273.24675784252656 222.2896501854062 274.59946502553356 222.30253311246634 277.3048793915475 222.30253311246634 C 280.01029375756144 222.30253311246634 281.36300094056844 221.24987716972828 284.0684153065824 221.24987716972828 C 286.77382967259626 221.24987716972828 288.12653685560326 221.5130878984928 290.83195122161715 221.68286054581404 C 293.5373655876311 221.85263319313526 294.890072770638 221.96819425219147 297.59548713665197 222.0987404063344 C 300.3008890860152 222.22928596132843 301.65359006069673 222.33558981865644 304.35899201006 222.33558981865644 C 307.0644063760739 222.33558981865644 308.41711355908086 222.1578628346324 311.1225279250948 222.1578628346324 C 313.82794229110874 222.1578628346324 315.1806494741157 222.1578628346324 317.8860638401296 222.22023680061102 C 320.5914782061435 222.28261076658964 321.9441853891505 223.12045866250992 324.64959975516445 223.3746430799365 C 327.3550141211784 223.6288274973631 328.7077213041854 223.54465362727643 331.41313567019927 223.6288274973631 C 334.1185500362132 223.71300136744978 335.4712572192202 223.69815790206192 338.17667158523415 223.79551243036985 C 340.8820859512481 223.89286695867776 342.234793134255 224.11560013890266 344.94020750026897 224.11560013890266 C 347.6456218662829 224.11560013890266 348.9983290492899 223.53814236074686 351.7037434153038 223.53814236074686 C 354.40915778131773 223.53814236074686 355.7618649643247 223.9081005729735 358.4672793303386 224.1114440113306 C 361.1726936963525 224.3147874496877 362.5254008793595 224.31189062520863 365.23081524537344 224.55485955253243 C 367.9362296113874 224.79782847985626 369.2889367943943 225.3262886479497 371.9943511604083 225.3262886479497 C 374.69976552642225 225.3262886479497 376.0524727094292 224.49841706082225 378.75788707544314 224.49841706082225 C 381.463301441457 224.49841706082225 382.816008624464 226.2918466515839 385.52142299047796 226.2918466515839 C 388.2268249398411 226.2918466515839 389.5795259145227 225.3677778057754 392.2849278638859 225.22416169568896 C 394.99034222989985 225.08054558560252 396.34304941290685 225.08054558560252 399.04846377892073 225.08054558560252 C 401.7538781449347 225.08054558560252 403.1065853279416 225.08054558560252 405.81199969395556 225.3631043881178 C 408.5174140599695 225.64566319063306 409.87012124297655 226.44052793085575 412.57553560899044 226.88349740952253 C 415.2809499750044 227.32646688818932 416.63365715801126 227.5779517814517 419.3390715240252 227.5779517814517 C 422.04448589003914 227.5779517814517 423.39719307304614 226.7299886830151 426.1026074390601 226.7299886830151 C 428.80802180507396 226.7299886830151 430.16072898808096 227.09247993305326 432.8661433540949 227.40320656076074 C 435.57155772010884 227.71393318846822 436.92426490311584 228.07697021961212 439.6296792691297 228.28362182155252 C 442.33509363514366 228.4902734234929 443.68780081815066 228.4004982188344 446.3932151841646 228.4902734234929 C 449.09862955017854 228.58004862815142 450.4513367331855 228.51383353844287 453.1567510991994 228.73249784484506 C 455.86216546521337 228.95116215124727 457.21487264822036 229.35185932517052 459.92028701423425 229.58359495550394 C 462.6257013802482 229.8153305858374 463.9784085632552 229.8472570888698 466.6838229292691 229.89117599651217 C 469.38923729528307 229.93509490415454 470.74194447829007 229.89117599651217 473.44735884430395 229.93509490415454 C 476.15276079366714 229.9790138117969 477.5054617683487 230.09454712474607 480.21086371771185 230.36620944738388 C 482.9162780837258 230.63787301683686 484.2689852667328 231.29340963438153 486.9743996327467 231.29340963438153 C 489.6798139987606 231.29340963438153 491.0325211817676 231.1767495907843 493.73793554778155 231.1767495907843 C 496.4433499137955 231.1767495907843 497.79605709680243 231.31134651228786 500.50147146281637 231.31134651228786 C 503.2068858288303 231.31134651228786 504.5595930118372 231.18585549890994 507.26500737785113 230.99707898497581 C 509.9704217438651 230.80830247104166 511.3231289268721 230.36746394261718 514.028543292886 230.36746394261718 C 516.7339576589 230.36746394261718 520.7920792079208 232.3011606130749 520.7920792079208 232.3011606130749" stroke="#0000FF" stroke-width="2"  stroke-dasharray="none"></path></g><g class="highcharts-markers highcharts-series-0"  transform="translate(74,61) scale(1 1)" clip-path="none"></g><g class="highcharts-series highcharts-series-1"  transform="translate(74,61) scale(1 1)" clip-path="url(#highcharts-22)"><path fill="none" d="M 0 0 C 0 0 4.058120093944639 66.02364293978317 6.763533489907733 94.7344064386318 C 9.468946885870826 123.44516993748042 10.821653583852372 130.75892900628767 13.527066979815466 143.5538174942431 C 16.23248018176839 156.34870506465356 17.585186782744852 151.42744306460142 20.290599984697778 158.70884658454645 C 22.99601357467104 165.9902511488172 24.34872036965767 173.40151700502483 27.05413395963093 179.9608377047826 C 29.75954754960419 186.52015840454033 31.112254344590827 188.20800290803635 33.817667934564085 191.50545008333523 C 36.52308074849667 194.8028963127702 37.875787155462966 194.42731478905986 40.581199969395556 196.44807121661722 C 43.28661433540949 198.46882880347212 44.63932151841645 199.82365678627863 47.34473588443039 201.6092351193659 C 50.050148698362975 203.39481242807668 51.40285510532927 203.48700151986165 54.10826791926186 205.37596032111227 C 56.81368073319445 207.26491912236293 58.16638714016075 209.91179656899516 60.87179995409334 211.05402912561908 C 63.577214320107274 212.196261682243 64.92992150311423 211.59836580183256 67.63533586912817 212.196261682243 C 70.34075023514211 212.79415756265348 71.69345741814907 213.19002910638818 74.39887178416299 214.04350852767143 C 77.10428304601423 214.89698696968176 78.45698867693986 215.6084992923072 81.16239993879111 216.46365634047686 C 83.86781430480505 217.31881436984546 85.22052148781202 217.68898338294073 87.92593585382595 218.31929622151716 C 90.63135021983989 218.94960906009362 91.98405740284684 219.26815374792307 94.68947176886078 219.61522053335906 C 97.39488303071202 219.96228692057443 98.74758866163765 219.61522053335906 101.45299992348889 220.05462915314553 C 104.15841428950282 220.494037772932 105.51112147250979 221.5259077057967 108.21653583852373 222.10749621224156 C 110.92195020453767 222.6890847186864 112.27465738754464 222.6218727964721 114.98007175355856 222.96257168536974 C 117.68548301540982 223.3032701833532 119.03818864633543 223.5778080026525 121.74359990818668 223.81098967944433 C 124.4490142742006 224.04417162378658 125.80172145720758 223.86609012336814 128.5071358232215 224.1284807382049 C 131.21255018923543 224.3908713530417 132.5652573722424 224.75988057635402 135.27067173825634 225.12294275362828 C 137.97608610427028 225.48600493090254 139.32879328727725 225.7225659940388 142.0342076532912 225.94379162457616 C 144.7396220193051 226.16501725511353 146.09232920231207 226.05329982160475 148.79774356832598 226.22907090631512 C 151.50315172601455 226.40484158766984 152.85585580485883 226.61502766132023 155.5612639625474 226.82264603973886 C 158.26667832856134 227.03026489459668 159.61938551156828 227.04650151153652 162.32479987758222 227.26716398950623 C 165.03021424359616 227.48782646747597 166.38292142660313 227.72156706496477 169.08833579261707 227.9259584295875 C 171.793750158631 228.1303497942102 173.14645734163796 228.1630387361812 175.8518717076519 228.28912081261979 C 178.5572860736658 228.41520288905838 179.9099932566728 228.40945005191003 182.61540762268672 228.55636881178037 C 185.32082198870066 228.70328757165072 186.6735291717076 228.87537205423772 189.37894353772157 229.02371461197146 C 192.08435169541013 229.17205682929196 193.4370557742544 229.1854360305012 196.14246393194296 229.29808074941604 C 198.84787829795687 229.4107257268261 200.20058548096387 229.45830116572245 202.90599984697778 229.5869388527837 C 205.61141421299172 229.715576539845 206.96412139599866 229.83786800673485 209.6695357620126 229.94126918472233 C 212.37495012802657 230.0446703627098 213.7276573110335 229.99444676144768 216.43307167704745 230.1039447427211 C 219.1384860430614 230.2134427239945 220.4911932260684 230.35724495007997 223.1966075920823 230.48875909108932 C 225.90202195809624 230.6202732320987 227.25472914110318 230.68347565882218 229.96014350711712 230.76151544776786 C 232.6655578731311 230.83955523671358 234.01826505613803 230.79342428605904 236.72367942215197 230.87895803581782 C 239.42908757984054 230.96449158929565 240.78179165868477 231.09562077686456 243.48719981637336 231.18918370585934 C 246.1926141823873 231.28274684956074 247.54532136539424 231.26891201578297 250.25073573140818 231.3467732175583 C 252.9561500974221 231.42463441933364 254.3088572804291 231.5132578735765 257.014271646443 231.5784897147361 C 259.7196860124569 231.64372155589572 261.07239319546386 231.60036080116163 263.77780756147786 231.67293242335631 C 266.4832219274918 231.74550404555097 267.83592911049874 231.84784230171135 270.5413434765127 231.94134782570933 C 273.24675784252656 232.03485334970728 274.59946502553356 232.08485589977826 277.3048793915475 232.1404600433461 C 280.01029375756144 232.196064186914 281.36300094056844 232.16032704028103 284.0684153065824 232.21936854354874 C 286.77382967259626 232.27841004681642 288.12653685560326 232.37676324860215 290.83195122161715 232.43566755968456 C 293.5373655876311 232.49457187076698 294.890072770638 232.45058682260262 297.59548713665197 232.51389009896076 C 300.3008890860152 232.57719308478497 301.65359006069673 232.73193470378288 304.35899201006 232.7521832151405 C 307.0644063760739 232.7724317264981 308.41711355908086 232.7521832151405 311.1225279250948 232.7724317264981 C 313.82794229110874 232.7926802378557 315.1806494741157 232.86511497251954 317.8860638401296 232.9288971479185 C 320.5914782061435 232.99267932331745 321.9441853891505 233.03212309016894 324.64959975516445 233.09134260349282 C 327.3550141211784 233.15056211681673 328.7077213041854 233.1748888475978 331.41313567019927 233.22499471453793 C 334.1185500362132 233.27510058147809 335.4712572192202 233.30968859371734 338.17667158523415 233.34187193819344 C 340.8820859512481 233.37405528266953 342.234793134255 233.34433334215538 344.94020750026897 233.38591143691835 C 347.6456218662829 233.42748953168132 348.9983290492899 233.4986026499991 351.7037434153038 233.54976241200825 C 354.40915778131773 233.60092217401743 355.7618649643247 233.60902372698482 358.4672793303386 233.64171024696418 C 361.1726936963525 233.67439676694354 362.5254008793595 233.6814972262224 365.23081524537344 233.7131950119052 C 367.9362296113874 233.74489279758802 369.2889367943943 233.76154951041187 371.9943511604083 233.80019917537814 C 374.69976552642225 233.8388488403444 376.0524727094292 233.85900179920364 378.75788707544314 233.90644333673654 C 381.463301441457 233.95388487426945 382.816008624464 234.0037390854025 385.52142299047796 234.0374068630426 C 388.2268249398411 234.07107448616256 389.5795259145227 234.05126572208695 392.2849278638859 234.0747818386368 C 394.99034222989985 234.09829806311566 396.34304941290685 234.11551869754982 399.04846377892073 234.15498771561437 C 401.7538781449347 234.19445673367892 403.1065853279416 234.23932654494288 405.81199969395556 234.27212692895952 C 408.5174140599695 234.3049273129762 409.87012124297655 234.2911593105575 412.57553560899044 234.31898963569765 C 415.2809499750044 234.3468199608378 416.63365715801126 234.39660844204002 419.3390715240252 234.4112785546602 C 422.04448589003914 234.4259486672804 423.39719307304614 234.4112785546602 426.1026074390601 234.4259486672804 C 428.80802180507396 234.4406187799006 430.16072898808096 234.50039495787567 432.8661433540949 234.5451076624149 C 435.57155772010884 234.58982036695414 436.92426490311584 234.64064060886295 439.6296792691297 234.64951218997666 C 442.33509363514366 234.65838377109037 443.68780081815066 234.64951218997666 446.3932151841646 234.65838377109037 C 449.09862955017854 234.66725535220408 450.4513367331855 234.7364647022743 453.1567510991994 234.75737732080333 C 455.86216546521337 234.77828993933235 457.21487264822036 234.75737732080333 459.92028701423425 234.77828993933235 C 462.6257013802482 234.79920255786138 463.9784085632552 234.86863481329198 466.6838229292691 234.8879415668565 C 469.38923729528307 234.90724832042105 470.74194447829007 234.89451705863442 473.44735884430395 234.90724832042105 C 476.15276079366714 234.91997952377682 477.5054617683487 234.92324245257421 480.21086371771185 234.9515977297125 C 482.9162780837258 234.9799531369895 484.2689852667328 235.02391727130805 486.9743996327467 235.04902503145922 C 489.6798139987606 235.0741327916104 491.0325211817676 235.05455784952184 493.73793554778155 235.0771365304684 C 496.4433499137955 235.09971521141497 497.79605709680243 235.1530152699841 500.50147146281637 235.16191843619208 C 503.2068858288303 235.17082160240005 504.5595930118372 235.16191843619208 507.26500737785113 235.17082160240005 C 509.9704217438651 235.17972476860803 511.3231289268721 235.21720921444916 514.028543292886 235.24233328391682 C 516.7339576589 235.26745735338451 520.7920792079208 235.29644194973858 520.7920792079208 235.29644194973858" stroke="#FF8000" stroke-width="1"  stroke-dasharray="4,3"></path></g><g class="highcharts-markers highcharts-series-1"  transform="translate(74,61) scale(1 1)" clip-path="none"></g><g class="highcharts-series highcharts-series-2"  transform="translate(74,61) scale(1 1)" clip-path="url(#highcharts-22)"><path fill="none" d="M 0 5.684341886080802e-14 C 0 5.684341886080802e-14 4.058120093944639 76.2242658345744 6.763533489907733 104.73858510035066 C 9.468946885870826 133.25290436612693 10.821653583852372 132.9595626624582 13.527066979815466 142.57159632888136 C 16.23248018176839 152.1836293060079 17.585186782744852 148.08721360909522 20.290599984697778 152.79875170922492 C 22.99601357467104 157.5102904851008 24.34872036965767 162.10485165713985 27.05413395963093 166.1292885188953 C 29.75954754960419 170.1537253806507 31.112254344590827 170.99905353718322 33.817667934564085 172.92093601800207 C 36.52308074849667 174.84281794753406 37.875787155462966 174.59772666644068 40.581199969395556 175.73869954477246 C 43.28661433540949 176.87967307767445 44.63932151841645 177.63391140709612 47.34473588443039 178.62580204608656 C 50.050148698362975 179.61769211603482 51.40285510532927 179.6696755400873 54.10826791926186 180.69815131711914 C 56.81368073319445 181.72662709415096 58.16638714016075 183.15827349905908 60.87179995409334 183.7681809312457 C 63.577214320107274 184.3780883634323 64.92992150311423 184.0599066626274 67.63533586912817 184.3780883634323 C 70.34075023514211 184.69627006423718 71.69345741814907 184.90782353265382 74.39887178416299 185.3590894352701 C 77.10428304601423 185.81035482010887 78.45698867693986 186.18528818409612 81.16239993879111 186.63441658206986 C 83.86781430480505 187.08354549536918 85.22052148781202 187.27590954623167 87.92593585382595 187.60473271345273 C 90.63135021983989 187.9335558806738 91.98405740284684 188.09822184688653 94.68947176886078 188.2785324181751 C 97.39488303071202 188.4588427825773 98.74758866163765 188.2785324181751 101.45299992348889 188.50628505267971 C 104.15841428950282 188.73403768718433 105.51112147250979 189.26592876276266 108.21653583852373 189.56557181088428 C 110.92195020453767 189.8652148590059 112.27465738754464 189.8298771183545 114.98007175355856 190.0045002932878 C 117.68548301540982 190.1791232678604 119.03818864633543 190.3194215774882 121.74359990818668 190.4386871846491 C 124.4490142742006 190.55795292865417 125.80172145720758 190.46706406708623 128.5071358232215 190.60082867120275 C 131.21255018923543 190.73459327531927 132.5652573722424 190.92279886794174 135.27067173825634 191.10751020523173 C 137.97608610427028 191.29222154252173 139.32879328727725 191.41209098164904 142.0342076532912 191.5243853576528 C 144.7396220193051 191.63667973365654 146.09232920231207 191.5799845922987 148.79774356832598 191.66898208525043 C 151.50315172601455 191.75797937397266 152.85585580485883 191.86438584923098 155.5612639625474 191.96937231183773 C 158.26667832856134 192.07435901536567 159.61938551156828 192.0825802172035 162.32479987758222 192.1939150005871 C 165.03021424359616 192.30524978397068 166.38292142660313 192.4230685813652 169.08833579261707 192.5260462287557 C 171.793750158631 192.62902387614622 173.14645734163796 192.64538399215846 175.8518717076519 192.70880323753977 C 178.5572860736658 192.77222248292108 179.9099932566728 192.76935092231912 182.61540762268672 192.84314245566222 C 185.32082198870066 192.91693398900534 186.6735291717076 193.00332560932108 189.37894353772157 193.07776090425534 C 192.08435169541013 193.15219602837712 193.4370557742544 193.1588711956084 196.14246393194296 193.21531850330226 C 198.84787829795687 193.27176594053046 200.20058548096387 193.29560780232887 202.90599984697778 193.3599977665605 C 205.61141421299172 193.42438773079212 206.96412139599866 193.48555183330757 209.6695357620126 193.5372683244603 C 212.37495012802657 193.58898481561306 213.7276573110335 193.56388580134683 216.43307167704745 193.6185802223242 C 219.1384860430614 193.67327464330157 220.4911932260684 193.74509934199034 223.1966075920823 193.81074042934713 C 225.90202195809624 193.87638151670393 227.25472914110318 193.90786908398928 229.96014350711712 193.94678565910812 C 232.6655578731311 193.98570223422695 234.01826505613803 193.96271348096724 236.72367942215197 194.0053233049413 C 239.42908757984054 194.0479330311353 240.78179165868477 194.11324744545433 243.48719981637336 194.15983453452827 C 246.1926141823873 194.2064217305095 247.54532136539424 194.19952716572757 250.25073573140818 194.2382590175792 C 252.9561500974221 194.27699086943082 254.3088572804291 194.32105878318342 257.014271646443 194.35349379378633 C 259.7196860124569 194.38592880438927 261.07239319546386 194.3643812781681 263.77780756147786 194.40043407059383 C 266.4832219274918 194.43648686301955 267.83592911049874 194.48732921482056 270.5413434765127 194.533757755915 C 273.24675784252656 194.58018629700942 274.59946502553356 194.6049843730944 277.3048793915475 194.632576776066 C 280.01029375756144 194.6601691790376 281.36300094056844 194.6424430444701 284.0684153065824 194.67171977077308 C 286.77382967259626 194.70099649707603 288.12653685560326 194.74975977832952 290.83195122161715 194.77896040758083 C 293.5373655876311 194.80816103683216 294.890072770638 194.78636665295133 297.59548713665197 194.8177229170296 C 300.3008890860152 194.8490790371966 301.65359006069673 194.92571752612685 304.35899201006 194.93574136819396 C 307.0644063760739 194.94576521026107 308.41711355908086 194.93574136819396 311.1225279250948 194.94576521026107 C 313.82794229110874 194.95578905232819 315.1806494741157 194.99164197440217 317.8860638401296 195.02319796003215 C 320.5914782061435 195.05475394566213 321.9441853891505 195.07426143519135 324.64959975516445 195.10354513841094 C 327.3550141211784 195.13282884163056 328.7077213041854 195.14485156542102 331.41313567019927 195.16961647613016 C 334.1185500362132 195.1943813868393 335.4712572192202 195.21146797958153 338.17667158523415 195.22736969195665 C 340.8820859512481 195.24327140433178 342.234793134255 195.22859152034286 344.94020750026897 195.24912503800576 C 347.6456218662829 195.26965855566868 348.9983290492899 195.30477784296363 351.7037434153038 195.33003728027126 C 354.40915778131773 195.3552967175789 355.7618649643247 195.35929036130622 358.4672793303386 195.375422224544 C 361.1726936963525 195.39155408778174 362.5254008793595 195.3950576153268 365.23081524537344 195.4106965964601 C 367.9362296113874 195.42633557759336 369.2889367943943 195.43455418907587 371.9943511604083 195.45361713021032 C 374.69976552642225 195.47268007134477 376.0524727094292 195.48262093947648 378.75788707544314 195.50601130213238 C 381.463301441457 195.52940166478825 382.816008624464 195.55397371280685 385.52142299047796 195.57056894348975 C 388.2268249398411 195.58716409800792 389.5795259145227 195.57740019354682 392.2849278638859 195.58898726513507 C 394.99034222989985 195.60057438990307 396.34304941290685 195.60906217147348 399.04846377892073 195.62850443438037 C 401.7538781449347 195.64794669728727 403.1065853279416 195.67004485372487 405.81199969395556 195.68619857966954 C 408.5174140599695 195.70235230561423 409.87012124297655 195.69557205036747 412.57553560899044 195.7092730641038 C 415.2809499750044 195.72297407784012 416.63365715801126 195.74748342162187 419.3390715240252 195.75470364835115 C 422.04448589003914 195.76192387508044 423.39719307304614 195.75470364835115 426.1026074390601 195.76192387508044 C 428.80802180507396 195.76914410180973 430.16072898808096 195.79855973017115 432.8661433540949 195.82055691617128 C 435.57155772010884 195.8425541021714 436.92426490311584 195.86754705406332 439.6296792691297 195.8719098050811 C 442.33509363514366 195.87627255609885 443.68780081815066 195.8719098050811 446.3932151841646 195.87627255609885 C 449.09862955017854 195.88063530711662 450.4513367331855 195.91466509055653 453.1567510991994 195.92494512638763 C 455.86216546521337 195.93522516221873 457.21487264822036 195.92494512638763 459.92028701423425 195.93522516221873 C 462.6257013802482 195.94550519804983 463.9784085632552 195.97962807083985 466.6838229292691 195.98911439973466 C 469.38923729528307 195.99860072862947 470.74194447829007 195.9923457379862 473.44735884430395 195.99860072862947 C 476.15276079366714 196.0048556905651 477.5054617683487 196.0064609079835 480.21086371771185 196.02038928118196 C 482.9162780837258 196.0343177183058 484.2689852667328 196.05591115527534 486.9743996327467 196.06824275443523 C 489.6798139987606 196.08057435359513 491.0325211817676 196.07096136224413 493.73793554778155 196.08204727698148 C 496.4433499137955 196.09313319171883 497.79605709680243 196.1193018907229 500.50147146281637 196.12367232812204 C 503.2068858288303 196.12804276552117 504.5595930118372 196.12367232812204 507.26500737785113 196.12804276552117 C 509.9704217438651 196.1324132029203 511.3231289268721 196.1508117471791 514.028543292886 196.16314189306252 C 516.7339576589 196.17547203894597 520.7920792079208 196.1896934949384 520.7920792079208 196.1896934949384" stroke="#FF00FF" stroke-width="1"  stroke-dasharray="4,3,1,3"></path></g><g class="highcharts-markers highcharts-series-2"  transform="translate(74,61) scale(1 1)" clip-path="none"></g></g><text x="280" text-anchor="middle" class="highcharts-title"  style="color:#333333;font-size:18px;fill:#333333;width:536px;" y="24"><tspan>FSC plot</tspan></text><text x="280" text-anchor="middle" class="highcharts-subtitle"  style="color:#555555;fill:#555555;width:536px;" y="45"><tspan>Click and drag in the chart area to zoom</tspan></text><g class="highcharts-legend"  transform="translate(450,60)"><rect x="0" y="0" width="139" height="53" fill="rgb(255,255,255)" fill-opacity="0" visibility="visible"></rect><g ><g><g class="highcharts-legend-item"  transform="translate(8,3)"><path fill="none" d="M 0 11 L 16 11" stroke-dasharray="none" stroke="#0000FF" stroke-width="2"></path><text x="21" style="color:#333333;font-size:12px;font-weight:bold;cursor:pointer;fill:#333333;" text-anchor="start"  y="15">FSC</text></g><g class="highcharts-legend-item"  transform="translate(8,17)"><path fill="none" d="M 0 11 L 16 11" stroke-dasharray="4,3" stroke="#FF8000" stroke-width="1"></path><text x="21" y="15" style="color:#333333;font-size:12px;font-weight:bold;cursor:pointer;fill:#333333;" text-anchor="start" ><tspan>3 sigma @ 12.8Å</tspan></text></g><g class="highcharts-legend-item"  transform="translate(8,31)"><path fill="none" d="M 0 11 L 16 11" stroke-dasharray="4,3,1,3" stroke="#FF00FF" stroke-width="1"></path><text x="21" y="15" style="color:#333333;font-size:12px;font-weight:bold;cursor:pointer;fill:#333333;" text-anchor="start" ><tspan>1/2 bit @ 14.4Å</tspan></text></g></g></g></g><g class="highcharts-axis-labels highcharts-xaxis-labels" ><text x="74" style="color:#606060;cursor:default;font-size:11px;fill:#606060;width:78px;text-overflow:clip;" text-anchor="middle" transform="translate(0,0)" y="319" opacity="1"><tspan>0</tspan></text><text x="158.88910891089108" style="color:#606060;cursor:default;font-size:11px;fill:#606060;width:78px;text-overflow:clip;" text-anchor="middle" transform="translate(0,0)" y="319" opacity="1"><tspan>0.05</tspan><tspan x="158.88910891089108" dy="14">(1/20.0)</tspan></text><text x="243.7782178217822" style="color:#606060;cursor:default;font-size:11px;fill:#606060;width:78px;text-overflow:clip;" text-anchor="middle" transform="translate(0,0)" y="319" opacity="1"><tspan>0.1</tspan><tspan x="243.7782178217822" dy="14">(1/10.0)</tspan></text><text x="328.66732673267325" style="color:#606060;cursor:default;font-size:11px;fill:#606060;width:78px;text-overflow:clip;" text-anchor="middle" transform="translate(0,0)" y="319" opacity="1"><tspan>0.15</tspan><tspan x="328.66732673267325" dy="14">(1/6.67)</tspan></text><text x="413.5564356435644" style="color:#606060;cursor:default;font-size:11px;fill:#606060;width:78px;text-overflow:clip;" text-anchor="middle" transform="translate(0,0)" y="319" opacity="1"><tspan>0.2</tspan><tspan x="413.5564356435644" dy="14">(1/5.00)</tspan></text><text x="498.44554455445547" style="color:#606060;cursor:default;font-size:11px;fill:#606060;width:78px;text-overflow:clip;" text-anchor="middle" transform="translate(0,0)" y="319" opacity="1"><tspan>0.25</tspan><tspan x="498.44554455445547" dy="14">(1/4.00)</tspan></text><text x="577.875" style="color:#606060;cursor:default;font-size:11px;fill:#606060;width:78px;text-overflow:clip;" text-anchor="middle" transform="translate(0,0)" y="319" opacity="1"><tspan>0.3</tspan><tspan x="577.875" dy="14">(1/3.33)</tspan></text></g><g class="highcharts-axis-labels highcharts-yaxis-labels" ><text x="59" style="color:#606060;cursor:default;font-size:11px;fill:#606060;width:188px;text-overflow:clip;" text-anchor="end" transform="translate(0,0)" y="305" opacity="1">0</text><text x="59" style="color:#606060;cursor:default;font-size:11px;fill:#606060;width:188px;text-overflow:clip;" text-anchor="end" transform="translate(0,0)" y="245" opacity="1">0.25</text><text x="59" style="color:#606060;cursor:default;font-size:11px;fill:#606060;width:188px;text-overflow:clip;" text-anchor="end" transform="translate(0,0)" y="185" opacity="1">0.5</text><text x="59" style="color:#606060;cursor:default;font-size:11px;fill:#606060;width:188px;text-overflow:clip;" text-anchor="end" transform="translate(0,0)" y="125" opacity="1">0.75</text><text x="59" style="color:#606060;cursor:default;font-size:11px;fill:#606060;width:188px;text-overflow:clip;" text-anchor="end" transform="translate(0,0)" y="66" opacity="1">1</text></g><g class="highcharts-tooltip"  style="cursor:default;padding:0;pointer-events:none;white-space:nowrap;" transform="translate(0,-9999)"><path fill="none" d="M 3.5 0.5 L 13.5 0.5 C 16.5 0.5 16.5 0.5 16.5 3.5 L 16.5 13.5 C 16.5 16.5 16.5 16.5 13.5 16.5 L 3.5 16.5 C 0.5 16.5 0.5 16.5 0.5 13.5 L 0.5 3.5 C 0.5 0.5 0.5 0.5 3.5 0.5"  stroke="black" stroke-opacity="0.049999999999999996" stroke-width="5" transform="translate(1, 1)"></path><path fill="none" d="M 3.5 0.5 L 13.5 0.5 C 16.5 0.5 16.5 0.5 16.5 3.5 L 16.5 13.5 C 16.5 16.5 16.5 16.5 13.5 16.5 L 3.5 16.5 C 0.5 16.5 0.5 16.5 0.5 13.5 L 0.5 3.5 C 0.5 0.5 0.5 0.5 3.5 0.5"  stroke="black" stroke-opacity="0.09999999999999999" stroke-width="3" transform="translate(1, 1)"></path><path fill="none" d="M 3.5 0.5 L 13.5 0.5 C 16.5 0.5 16.5 0.5 16.5 3.5 L 16.5 13.5 C 16.5 16.5 16.5 16.5 13.5 16.5 L 3.5 16.5 C 0.5 16.5 0.5 16.5 0.5 13.5 L 0.5 3.5 C 0.5 0.5 0.5 0.5 3.5 0.5"  stroke="black" stroke-opacity="0.15" stroke-width="1" transform="translate(1, 1)"></path><path fill="rgb(249, 249, 249)" fill-opacity=" .85" d="M 3.5 0.5 L 13.5 0.5 C 16.5 0.5 16.5 0.5 16.5 3.5 L 16.5 13.5 C 16.5 16.5 16.5 16.5 13.5 16.5 L 3.5 16.5 C 0.5 16.5 0.5 16.5 0.5 13.5 L 0.5 3.5 C 0.5 0.5 0.5 0.5 3.5 0.5"></path><text x="8"  style="font-size:12px;color:#333333;fill:#333333;" y="20"></text></g></svg>